<?xml version="1.0" standalone="no"?>
<!DOCTYPE svg PUBLIC "-//W3C//DTD SVG 20010904//EN"
 "http://www.w3.org/TR/2001/REC-SVG-20010904/DTD/svg10.dtd">
<svg version="1.0" xmlns="http://www.w3.org/2000/svg"
 width="681.000000pt" height="681.000000pt" viewBox="0 0 681.000000 681.000000"
 preserveAspectRatio="xMidYMid meet">
<metadata>
Created by potrace 1.11, written by Peter Selinger 2001-2013
</metadata>
<g transform="translate(0.000000,681.000000) scale(0.100000,-0.100000)"
fill="#000000" stroke="none">
<path d="M4213 6683 c-23 -4 -33 -23 -12 -23 5 0 7 -5 4 -10 -4 -6 -12 -8 -18
-4 -7 3 -4 -1 5 -8 15 -13 15 -15 1 -24 -14 -9 -14 -12 1 -27 16 -16 14 -22
-7 -18 -5 1 -6 -3 -2 -9 3 -6 10 -8 15 -5 5 3 12 0 16 -6 4 -7 3 -9 -3 -6 -6
4 -16 1 -22 -7 -9 -11 -8 -17 4 -29 19 -20 19 -31 1 -24 -10 4 -13 1 -9 -8 3
-8 10 -12 17 -8 6 3 6 1 -1 -8 -15 -15 -17 -33 -4 -24 5 3 13 1 16 -5 4 -6 1
-9 -6 -8 -6 2 -14 -3 -17 -11 -3 -10 0 -11 9 -5 12 7 12 5 0 -9 -7 -9 -17 -14
-22 -11 -5 3 -4 -6 2 -20 7 -14 17 -22 23 -19 6 4 6 0 -1 -8 -10 -12 -10 -18
0 -29 9 -10 9 -11 0 -6 -8 4 -13 1 -13 -8 0 -9 4 -16 9 -16 6 0 9 -9 8 -20 -1
-11 -5 -20 -10 -20 -5 0 -7 6 -4 13 3 8 -1 14 -8 14 -10 0 -11 -6 -3 -23 6
-13 16 -21 22 -17 6 3 6 0 -1 -7 -10 -11 -9 -16 5 -27 14 -11 15 -12 1 -7 -22
7 -32 -21 -13 -36 8 -7 14 -17 14 -22 0 -6 -7 -5 -15 2 -9 7 -18 10 -22 6 -3
-3 -1 -6 5 -6 7 0 12 -7 12 -16 0 -9 5 -12 13 -8 9 6 9 5 0 -7 -6 -8 -12 -18
-13 -24 -1 -5 -6 -17 -11 -25 -7 -11 -8 -8 -3 10 6 24 6 24 -10 5 -8 -11 -16
-15 -16 -10 0 6 -5 3 -10 -5 -7 -11 -10 -11 -10 -2 0 9 -5 10 -18 3 -11 -6
-24 -6 -32 -1 -9 6 -17 5 -22 -3 -6 -9 -8 -9 -8 1 0 6 -5 12 -11 12 -5 0 -7
-6 -3 -12 6 -10 5 -10 -7 -1 -12 10 -18 10 -27 1 -9 -9 -12 -9 -12 1 0 11 -3
11 -17 0 -15 -12 -16 -12 -8 1 8 13 7 13 -8 1 -10 -7 -17 -9 -17 -3 0 11 -25
11 -36 0 -3 -4 -12 -4 -18 -2 -7 3 -13 -2 -13 -11 0 -8 5 -15 11 -15 6 0 12
-15 13 -32 3 -54 10 -73 26 -72 10 1 13 -4 10 -14 -4 -9 -2 -13 4 -9 5 3 10 0
10 -8 0 -8 -4 -12 -9 -9 -4 3 -8 0 -8 -5 0 -6 5 -11 12 -11 6 0 8 -3 5 -7 -4
-3 0 -17 9 -31 10 -15 11 -21 3 -17 -9 6 -11 3 -6 -9 4 -10 7 -19 7 -22 0 -2
6 -2 13 0 6 1 9 1 4 -1 -4 -3 -5 -9 -2 -14 4 -5 -2 -6 -12 -3 -13 4 -11 0 7
-16 16 -14 19 -20 8 -16 -10 3 -20 0 -24 -7 -4 -7 -4 -9 1 -5 11 10 35 -10 35
-29 0 -8 -4 -12 -8 -9 -4 2 -8 -6 -8 -20 0 -13 4 -24 10 -24 5 0 6 -3 3 -7 -4
-3 -2 -12 5 -20 8 -10 8 -12 -3 -8 -10 4 -15 -1 -15 -14 0 -11 4 -17 8 -15 13
8 9 -11 -4 -25 -11 -11 -10 -14 0 -18 6 -3 9 -10 5 -16 -12 -19 -14 -47 -3
-47 6 0 10 -5 10 -11 0 -5 -5 -7 -11 -3 -8 5 -10 -1 -5 -19 3 -15 1 -29 -6
-33 -7 -4 -8 -3 -4 4 11 18 0 14 -15 -5 -9 -10 -9 -14 -2 -10 7 5 17 -2 24
-15 11 -21 11 -22 -4 -10 -14 12 -15 10 -11 -13 3 -20 1 -25 -8 -19 -10 6 -10
5 0 -8 9 -12 10 -18 2 -23 -6 -4 -9 -13 -7 -19 3 -7 1 -19 -3 -27 -5 -8 -4
-19 3 -28 9 -12 9 -13 0 -7 -9 5 -13 1 -13 -13 0 -10 -6 -22 -12 -25 -7 -3 -3
-3 10 0 12 3 22 1 22 -5 0 -6 -6 -11 -14 -11 -7 0 -19 -7 -26 -15 -11 -13 -10
-15 6 -9 18 5 18 5 0 -10 -11 -9 -16 -16 -10 -16 5 0 2 -5 -6 -11 -11 -8 -12
-12 -2 -16 6 -2 12 -9 12 -14 0 -6 -5 -7 -12 -3 -7 5 -8 3 -3 -6 4 -7 2 -16
-6 -21 -10 -6 -11 -9 -1 -9 6 0 12 -7 12 -15 0 -14 -13 -20 -35 -15 -5 1 -5
-4 2 -11 12 -12 7 -42 -6 -34 -4 2 -7 -14 -7 -35 1 -22 -2 -40 -6 -40 -4 0 -5
-9 -3 -21 4 -17 2 -19 -10 -9 -20 17 -19 5 1 -15 16 -15 16 -16 -2 -13 -14 2
-18 -2 -16 -16 2 -10 -1 -16 -6 -13 -4 3 -6 -8 -4 -25 4 -24 2 -29 -9 -23 -11
7 -10 4 1 -10 12 -15 12 -17 1 -10 -11 6 -13 3 -9 -13 4 -12 2 -20 -3 -16 -8
5 -14 -17 -10 -39 1 -5 -4 -5 -10 -1 -9 5 -10 1 -7 -14 4 -12 2 -25 -3 -28 -5
-3 -6 -11 -2 -17 4 -7 -2 -5 -12 3 -11 9 -16 10 -11 3 4 -8 2 -13 -4 -13 -6 0
-8 -5 -5 -11 4 -6 -1 -17 -11 -25 -11 -8 -14 -13 -9 -12 6 2 10 -1 10 -7 0 -5
-3 -9 -8 -7 -4 1 -6 -1 -6 -5 3 -21 -3 -33 -17 -33 -8 0 -13 -4 -9 -9 3 -5 1
-13 -5 -16 -8 -5 -7 -12 2 -23 9 -11 9 -14 1 -9 -8 5 -20 -7 -33 -34 -12 -22
-17 -38 -12 -35 6 3 8 -2 5 -14 -3 -11 -10 -20 -15 -20 -6 0 -8 -7 -4 -15 3
-10 -1 -15 -12 -15 -15 0 -15 -2 -2 -10 11 -7 11 -10 2 -10 -7 0 -11 -4 -8 -9
3 -5 -1 -12 -10 -15 -15 -6 -15 -9 2 -28 11 -12 14 -18 8 -15 -7 4 -15 0 -18
-9 -4 -10 -2 -13 7 -8 6 4 1 -6 -13 -22 -14 -15 -18 -23 -9 -16 14 10 18 10
23 -3 3 -9 2 -14 -3 -11 -7 5 -21 -14 -25 -34 -1 -3 -5 -12 -11 -20 -8 -13 -7
-13 8 -1 9 7 14 18 10 24 -3 6 -1 7 6 3 8 -5 7 -13 -4 -29 -18 -26 -19 -41 -2
-31 8 6 8 3 -1 -9 -8 -9 -11 -21 -7 -27 3 -5 1 -10 -4 -10 -6 0 -11 -5 -11
-11 0 -5 5 -7 10 -4 15 9 12 -2 -6 -19 -8 -9 -11 -16 -5 -16 6 0 11 -5 11 -11
0 -5 -5 -7 -11 -3 -8 5 -8 1 0 -14 14 -26 14 -35 0 -26 -8 4 -8 1 -1 -13 14
-25 4 -40 -33 -49 -17 -4 -27 -3 -23 1 4 4 1 13 -5 20 -9 10 -15 10 -26 1 -11
-8 -13 -8 -8 1 4 6 -4 24 -19 40 -15 15 -20 19 -13 8 13 -18 13 -19 -3 -6 -10
7 -16 17 -13 21 3 5 1 11 -4 15 -6 3 -7 13 -4 23 6 15 5 15 -10 4 -14 -12 -16
-11 -12 7 2 11 -1 24 -7 27 -6 4 -8 2 -4 -4 3 -6 2 -13 -3 -16 -5 -3 -7 8 -6
24 1 17 -1 30 -6 30 -5 0 -9 7 -9 16 0 8 -6 21 -13 28 -7 7 -12 30 -12 50 1
20 -3 36 -8 36 -5 0 -4 7 3 15 10 12 9 15 -6 15 -13 0 -15 3 -7 8 8 5 9 13 3
22 -14 22 -12 30 6 30 8 0 12 5 9 10 -4 6 -10 8 -14 5 -5 -2 -6 7 -3 20 2 15
9 22 16 18 8 -4 7 -2 -1 7 -6 7 -9 19 -6 26 3 8 -1 14 -8 14 -8 0 -5 6 7 16
10 8 13 13 7 9 -16 -8 -17 11 -2 21 8 4 7 9 -2 15 -8 5 -9 9 -3 9 6 0 11 7 11
15 0 8 -5 15 -11 15 -5 0 -2 6 9 13 12 10 15 16 6 21 -8 5 -8 13 -1 26 6 12 7
21 0 25 -5 3 -7 12 -4 20 4 8 11 12 16 9 7 -5 9 5 6 24 -4 27 -2 30 11 19 12
-9 13 -9 7 1 -4 7 -2 12 6 12 8 0 9 3 3 8 -12 9 -13 92 -1 92 5 0 3 7 -4 15
-10 12 -10 15 2 15 17 0 22 40 5 40 -7 0 -4 5 6 11 19 11 23 29 6 29 -5 0 -8
-4 -5 -8 3 -5 -1 -9 -9 -9 -13 0 -13 4 1 25 9 13 11 22 6 18 -10 -6 -28 30
-24 47 1 4 -6 3 -16 -2 -15 -8 -24 -5 -41 10 -11 11 -21 15 -21 8 0 -8 -5 -7
-17 2 -15 12 -16 12 -10 -3 3 -10 3 -17 -1 -17 -21 3 -32 -2 -26 -13 4 -6 3
-8 -4 -4 -5 3 -13 0 -16 -6 -3 -7 -3 -2 0 12 4 21 3 22 -6 7 -6 -9 -15 -15
-21 -12 -5 4 -9 1 -9 -5 0 -6 -4 -8 -10 -5 -6 3 -7 -1 -4 -10 5 -11 2 -14 -10
-9 -11 4 -16 2 -14 -7 2 -8 -3 -13 -11 -11 -8 2 -11 -3 -8 -12 4 -9 3 -15 -1
-15 -20 3 -33 -2 -27 -11 5 -9 -7 -14 -27 -11 -3 0 -5 -11 -4 -24 3 -21 0 -23
-15 -14 -15 7 -17 6 -13 -5 3 -8 -4 -23 -15 -33 -12 -9 -21 -23 -21 -30 0 -7
-6 -13 -12 -13 -9 0 -8 -4 2 -10 14 -9 7 -15 -14 -11 -5 1 -6 -5 -3 -13 4 -10
-2 -20 -15 -27 -17 -9 -18 -13 -7 -20 9 -6 10 -9 2 -9 -7 0 -10 -9 -8 -21 4
-18 2 -19 -12 -7 -12 9 -15 10 -9 0 4 -7 0 -19 -9 -28 -9 -9 -14 -22 -12 -29
3 -6 1 -18 -3 -26 -5 -7 -5 -18 1 -25 7 -8 6 -14 -1 -19 -6 -3 -7 -11 -4 -17
4 -7 2 -8 -5 -4 -9 6 -9 12 1 24 12 15 11 16 -4 4 -9 -8 -14 -20 -11 -28 3 -8
0 -14 -6 -14 -6 0 -11 -5 -11 -11 0 -5 5 -7 11 -4 6 4 5 -2 -2 -13 -7 -12 -17
-18 -22 -15 -5 3 -3 -5 5 -16 11 -18 11 -23 -2 -31 -10 -6 -11 -10 -3 -10 16
0 11 -42 -5 -48 -7 -2 -9 -8 -6 -13 3 -6 7 -21 9 -34 2 -22 0 -23 -19 -13
l-21 11 20 -23 c11 -13 14 -20 6 -15 -11 6 -13 4 -8 -8 3 -10 2 -17 -4 -17 -6
0 -7 -5 -4 -10 4 -6 12 -7 18 -3 8 5 8 2 0 -9 -7 -8 -9 -19 -5 -24 4 -4 -2 -2
-12 6 -12 9 -17 10 -12 3 12 -22 15 -52 5 -58 -5 -4 -6 -12 -2 -18 11 -18 10
-77 -2 -77 -6 0 -6 -3 1 -8 13 -8 12 -40 -1 -61 -6 -10 -4 -12 5 -6 9 6 11 -3
9 -39 -4 -38 -2 -44 8 -30 11 15 12 14 10 -5 -1 -11 -5 -21 -9 -21 -3 0 -6
-10 -5 -22 1 -24 20 -50 31 -43 3 3 2 0 -3 -7 -8 -8 -15 -8 -28 3 -16 12 -17
12 -6 -2 7 -9 9 -20 5 -24 -4 -5 -2 -5 4 -2 7 4 18 -1 25 -10 10 -12 10 -15 1
-9 -9 6 -12 -3 -9 -38 1 -25 6 -48 10 -52 4 -4 1 -14 -6 -22 -9 -13 -9 -14 1
-8 8 5 12 -1 12 -19 0 -17 -4 -24 -12 -19 -7 4 -8 3 -4 -5 11 -17 -3 -51 -20
-51 -8 0 -12 -4 -9 -10 3 -5 1 -10 -5 -10 -6 0 -8 -5 -4 -11 3 -6 -9 -3 -27 7
-33 17 -34 17 -20 -2 8 -10 3 -8 -11 6 -14 14 -23 31 -20 38 3 8 -1 10 -12 6
-12 -5 -16 0 -16 19 0 17 -7 26 -22 30 -19 5 -20 8 -7 23 11 15 12 16 0 10 -9
-6 -12 -5 -9 5 3 8 -2 20 -11 27 -9 8 -10 11 -4 7 9 -4 11 -1 7 10 -4 10 -13
14 -22 10 -9 -3 -13 -3 -9 1 4 4 1 14 -6 23 -11 14 -10 14 6 2 15 -12 17 -12
11 3 -3 9 -11 16 -18 16 -7 0 -6 3 2 9 11 6 10 10 -3 15 -15 5 -15 9 -4 23 10
12 10 14 2 9 -8 -4 -13 -2 -13 4 0 7 -7 10 -14 7 -10 -4 -13 -1 -9 8 3 8 0 28
-6 45 -8 24 -7 29 2 23 8 -4 7 -1 -1 10 -8 9 -11 21 -7 26 4 7 -1 8 -12 4 -16
-6 -17 -5 -3 12 8 10 10 16 4 12 -7 -4 -17 0 -24 8 -11 13 -10 14 6 9 18 -6
18 -6 2 11 -12 13 -14 24 -7 42 6 16 5 22 -1 18 -6 -3 -10 1 -10 10 0 20 -25
47 -35 37 -4 -4 0 5 9 20 13 20 14 28 5 34 -8 4 -9 3 -5 -4 4 -7 3 -12 -2 -12
-6 0 -9 11 -8 24 0 13 4 22 9 19 4 -2 7 0 7 6 0 5 -6 11 -12 14 -10 3 -10 7 0
19 10 12 10 18 -2 27 -8 6 -12 21 -9 31 3 13 0 20 -8 20 -11 0 -11 2 1 10 13
9 13 10 0 11 -10 0 -8 3 5 9 17 7 17 9 3 9 -21 1 -24 27 -5 34 7 3 5 6 -5 6
-10 1 -18 -4 -18 -11 0 -6 -3 -8 -6 -5 -11 10 17 38 30 30 8 -5 8 -3 0 8 -14
19 -16 61 -2 53 7 -4 8 -2 4 5 -4 6 -11 9 -16 6 -13 -8 -22 27 -10 39 8 8 9 6
5 -6 -5 -11 -2 -18 6 -18 7 0 9 3 6 7 -4 3 -1 13 6 21 9 13 9 14 0 8 -7 -4
-13 -3 -13 3 0 5 -3 17 -7 27 -4 11 -3 15 5 10 6 -3 14 -1 18 5 4 8 3 9 -4 5
-7 -4 -12 -2 -12 4 0 6 -4 9 -8 6 -5 -3 -9 1 -9 9 0 8 5 11 10 8 6 -4 8 3 5
15 -4 12 -2 22 3 22 4 0 5 7 2 17 -5 12 -3 14 8 8 8 -4 11 -5 7 0 -4 4 -3 14
4 22 9 11 7 12 -8 7 -18 -5 -18 -5 -1 9 17 14 24 33 9 23 -4 -2 -8 4 -8 14 0
10 3 17 7 14 10 -6 21 28 12 35 -11 8 -10 27 1 38 5 5 6 2 1 -6 -5 -10 -4 -12
3 -7 9 5 9 13 1 28 -8 15 -8 19 0 13 21 -12 41 14 31 40 -6 16 -6 27 1 30 5 4
7 16 4 28 -2 12 -2 16 1 10 3 -7 11 -13 17 -13 5 0 7 3 4 7 -4 3 1 12 11 20
10 9 11 12 2 7 -11 -6 -11 -2 2 12 14 16 15 23 6 32 -9 9 -9 12 1 12 7 0 9 5
5 12 -5 8 -2 9 12 4 10 -4 15 -4 11 0 -4 4 1 13 11 21 9 8 11 12 4 8 -14 -7
-12 29 3 42 4 5 5 2 0 -6 -6 -10 -4 -12 4 -7 7 5 10 14 7 22 -3 8 0 13 7 11 7
-1 11 4 9 11 -1 6 2 12 7 12 6 0 8 9 6 20 -2 11 1 22 6 25 5 4 6 11 3 17 -4 7
-2 8 5 4 9 -6 9 -12 -1 -24 -12 -15 -11 -16 4 -4 9 8 15 19 12 26 -3 8 2 16
11 20 13 5 14 10 4 27 -9 17 -8 20 2 14 9 -6 11 -2 7 13 -4 13 -2 20 3 16 6
-3 17 0 25 7 12 10 12 14 2 20 -10 7 -10 9 0 9 6 0 12 9 12 19 0 11 5 23 10
26 6 3 10 1 10 -6 0 -7 3 -9 6 -6 4 4 1 14 -6 22 -11 13 -11 16 1 13 8 -2 13
3 11 10 -1 6 3 12 9 12 8 0 8 4 0 14 -9 11 -9 16 0 22 8 4 9 3 5 -4 -4 -7 -3
-12 3 -12 5 0 13 9 16 20 4 11 11 18 16 15 5 -3 6 1 2 10 -3 10 0 21 8 26 12
7 12 9 0 9 -11 0 -10 4 4 13 12 9 15 19 10 28 -7 12 -6 12 7 1 14 -11 16 -10
11 9 -4 14 -2 20 5 16 11 -8 11 11 -1 30 -6 9 -3 11 9 6 13 -5 16 -3 11 10 -4
10 -2 16 6 14 7 -1 11 4 9 11 -1 6 3 12 9 12 8 0 7 6 -2 17 -10 11 -10 14 -1
9 7 -4 12 -2 12 4 0 6 6 8 13 4 10 -6 10 -4 0 7 -16 16 -17 29 -2 29 5 0 7 -6
4 -12 -4 -7 0 -5 8 5 8 9 13 31 12 47 -1 17 2 28 8 27 6 -1 11 5 12 13 0 8 8
14 17 14 10 -1 14 4 11 12 -3 8 1 22 8 31 10 12 10 15 2 9 -7 -4 -13 -2 -13 3
0 11 15 15 34 12 5 -1 4 5 -4 13 -15 19 -24 21 -14 4 4 -7 3 -8 -5 -4 -9 6 -9
11 0 22 14 17 23 19 13 2 -4 -7 -3 -8 5 -4 9 6 9 11 -1 24 -10 12 -10 14 0 8
6 -4 12 -2 12 3 0 6 -5 11 -11 11 -8 0 -7 6 2 17 10 11 10 14 2 9 -8 -4 -13
-1 -13 8 0 9 -4 16 -8 16 -5 0 -8 16 -7 35 0 19 -3 35 -8 35 -4 0 -6 3 -4 8 3
4 -1 13 -9 20 -10 9 -14 9 -14 1 0 -8 -4 -9 -13 0 -10 8 -17 7 -25 -1 -9 -9
-12 -9 -12 1 0 10 -3 11 -14 2 -11 -9 -16 -9 -21 0 -6 8 -10 7 -16 -2 -6 -10
-9 -11 -9 -1 0 6 -5 12 -11 12 -5 0 -7 -6 -3 -12 6 -10 5 -10 -7 -1 -12 10
-18 10 -27 1 -7 -7 -12 -8 -12 -2 0 6 -7 11 -15 11 -8 0 -12 -3 -10 -7 2 -4
-9 -7 -25 -6 -17 1 -30 5 -30 10 0 5 -6 3 -14 -3 -11 -9 -16 -9 -21 0 -6 8
-10 7 -16 -2 -7 -11 -9 -11 -9 1 0 13 -1 13 -10 0 -8 -12 -10 -12 -10 -1 0 10
-3 11 -13 2 -10 -8 -17 -7 -25 1 -9 9 -12 9 -12 -2 0 -13 -2 -13 -9 -1 -8 12
-12 12 -25 2 -11 -10 -16 -10 -16 -2 0 8 -5 9 -18 2 -13 -7 -23 -6 -30 1 -9 9
-12 9 -12 -1 0 -7 -5 -9 -12 -4 -15 9 -19 10 -50 12 -19 1 -20 3 -8 11 10 6
11 10 3 10 -7 0 -13 5 -13 11 0 5 4 8 8 5 4 -2 8 6 8 19 0 13 -3 22 -7 19 -4
-2 -9 3 -13 11 -3 8 0 14 6 12 19 -4 20 21 1 26 -17 5 -17 5 0 6 10 0 15 6 12
11 -4 6 -12 8 -18 4 -7 -3 -4 1 6 9 20 16 23 32 5 21 -10 -6 -10 -4 0 8 10 12
10 18 1 23 -8 6 -7 10 2 16 11 7 11 9 -1 9 -13 0 -13 1 0 10 11 7 11 10 2 10
-10 0 -10 5 -1 21 6 12 7 19 1 15 -5 -3 -13 1 -16 9 -3 9 1 18 10 22 12 4 13
8 3 14 -17 10 -21 39 -5 33 7 -3 13 2 13 10 0 8 -4 13 -8 11 -4 -3 -9 2 -12
10 -4 10 -1 12 11 8 15 -6 16 -5 2 12 -9 11 -10 16 -2 11 6 -4 12 -2 12 3 0 6
-4 11 -9 11 -5 0 -11 7 -14 14 -4 9 -1 13 7 10 9 -3 12 11 12 56 l-1 62 -30
-7 c-16 -4 -35 -8 -42 -9 -7 -1 -16 -5 -19 -9 -4 -4 -16 -7 -26 -7 -10 0 -26
-4 -36 -9 -27 -15 -89 -41 -96 -41 -6 0 -62 -24 -136 -58 -19 -8 -37 -16 -40
-17 -3 -1 -16 -6 -30 -12 -14 -6 -28 -10 -31 -9 -3 0 -14 -6 -24 -14 -17 -13
-18 -13 -10 0 5 9 -2 6 -16 -6 -13 -11 -42 -29 -64 -40 -22 -10 -43 -23 -46
-27 -4 -5 -18 -10 -32 -10 -14 -1 -23 -5 -21 -8 7 -12 -25 -31 -37 -23 -8 4
-9 3 -5 -4 4 -7 1 -12 -8 -12 -9 0 -16 -3 -16 -7 0 -5 -17 -16 -38 -26 -20
-10 -80 -49 -132 -88 -138 -101 -142 -104 -158 -102 -8 0 -11 -5 -8 -13 3 -8
1 -14 -3 -14 -5 0 -29 -18 -53 -40 -23 -22 -48 -38 -55 -35 -7 2 -10 -2 -6
-11 3 -9 -1 -14 -12 -14 -10 0 -13 5 -9 12 4 7 3 8 -5 4 -6 -4 -9 -12 -5 -17
7 -12 -55 -71 -67 -63 -5 3 -6 -2 -3 -10 7 -19 -7 -21 -26 -3 -12 10 -12 9 -3
-3 9 -12 5 -22 -18 -48 -32 -36 -41 -40 -32 -14 3 9 3 14 -1 10 -4 -3 -8 -12
-10 -20 -3 -23 -17 -39 -28 -32 -6 4 -8 2 -5 -3 8 -13 -17 -36 -28 -25 -5 4
-5 2 -2 -4 9 -16 -40 -67 -55 -58 -8 5 -9 2 -5 -9 4 -10 -3 -23 -18 -35 -13
-11 -21 -23 -17 -27 4 -5 -1 -5 -11 -2 -11 4 -16 3 -12 -4 8 -13 -14 -41 -26
-33 -5 3 -8 0 -7 -8 2 -7 -3 -12 -10 -10 -8 1 -11 -2 -7 -7 8 -14 -24 -61 -42
-61 -8 0 -12 -4 -9 -9 8 -12 -19 -33 -29 -23 -5 4 -5 1 -1 -5 4 -7 2 -13 -4
-13 -6 0 -9 -4 -5 -10 3 -5 -2 -18 -12 -28 -31 -33 -48 -56 -60 -84 -7 -16
-17 -28 -23 -28 -5 0 -10 -7 -10 -15 0 -8 -4 -15 -10 -15 -5 0 -9 -3 -8 -7 4
-16 -23 -53 -34 -47 -7 4 -8 3 -4 -4 4 -6 -2 -20 -13 -31 -11 -11 -17 -22 -13
-25 3 -3 -5 -18 -19 -32 -13 -14 -23 -27 -21 -30 7 -13 0 -17 -9 -4 -8 12 -9
10 -4 -7 4 -15 -1 -29 -14 -42 -13 -13 -16 -21 -9 -21 9 0 8 -3 -2 -10 -8 -5
-20 -24 -26 -42 -6 -18 -16 -32 -22 -31 -7 2 -9 -4 -5 -14 4 -11 3 -14 -5 -9
-8 5 -10 1 -5 -10 3 -10 2 -15 -3 -12 -5 4 -10 -8 -11 -24 -1 -17 -8 -37 -14
-45 -19 -23 -59 -113 -59 -134 0 -10 -4 -19 -10 -19 -5 0 -9 -3 -8 -7 2 -11
-10 -41 -30 -78 -9 -16 -15 -31 -14 -32 7 -9 0 -23 -9 -17 -8 4 -9 0 -4 -15 3
-11 3 -26 -2 -33 -4 -7 -9 -22 -10 -33 -2 -10 -7 -22 -11 -25 -4 -3 -7 -9 -8
-15 -1 -21 -28 -105 -34 -105 -3 0 -5 -16 -4 -35 1 -20 -4 -42 -13 -50 -8 -8
-12 -19 -9 -24 7 -11 -4 -72 -13 -67 -3 2 -7 -19 -9 -47 -1 -28 -6 -56 -11
-61 -4 -6 -9 -38 -10 -71 -2 -33 -5 -64 -8 -69 -3 -4 -8 -32 -10 -60 -2 -28
-7 -58 -10 -66 -10 -22 -11 -722 -1 -708 5 8 8 0 9 -22 2 -94 5 -128 12 -123
4 2 7 -5 7 -16 0 -12 -6 -21 -12 -21 -9 0 -10 -3 -2 -8 10 -6 18 -33 28 -87 4
-28 25 -125 33 -155 3 -14 6 -37 7 -52 0 -14 3 -25 6 -23 3 2 14 -29 25 -68
10 -40 20 -74 20 -77 1 -3 9 -22 18 -42 10 -21 17 -46 17 -57 0 -11 5 -23 10
-26 8 -5 7 -12 -2 -23 -8 -10 -9 -13 -1 -9 10 7 37 -49 38 -78 0 -5 6 -16 13
-23 6 -7 12 -22 12 -32 0 -10 4 -21 9 -25 6 -3 8 -14 6 -25 -2 -12 0 -18 4
-15 8 4 22 -19 22 -35 0 -3 7 -12 15 -21 8 -9 16 -30 17 -47 1 -17 7 -30 12
-29 6 1 10 -8 9 -20 0 -12 3 -20 8 -17 7 5 12 -10 9 -28 0 -5 5 -8 13 -8 9 0
13 -7 11 -20 -2 -11 0 -20 4 -20 12 0 51 -76 43 -85 -4 -5 -1 -5 6 -1 12 7 34
-31 26 -45 -2 -4 3 -9 11 -13 8 -3 15 -13 15 -22 0 -10 3 -14 7 -11 3 4 14
-10 23 -30 12 -27 14 -40 6 -46 -7 -6 -5 -7 6 -4 10 4 22 -3 32 -19 9 -13 13
-24 9 -24 -4 0 3 -7 15 -16 12 -8 22 -21 22 -29 0 -7 6 -15 13 -18 9 -3 9 -7
0 -19 -10 -12 -10 -15 2 -15 8 0 12 4 9 9 -3 4 -1 8 3 8 5 0 17 -17 28 -37 11
-21 27 -44 35 -53 37 -38 85 -102 83 -111 -2 -5 2 -9 7 -9 15 0 75 -71 74 -87
-1 -7 2 -11 6 -8 11 7 61 -50 53 -60 -5 -4 -3 -5 3 -2 6 4 34 -17 61 -46 27
-29 69 -68 91 -88 23 -20 42 -42 42 -48 0 -7 4 -10 8 -7 10 6 62 -40 62 -55 0
-6 4 -8 9 -4 6 3 14 -3 20 -12 6 -10 11 -15 11 -11 0 4 9 0 19 -9 11 -9 17
-21 14 -26 -3 -6 -2 -7 3 -4 5 3 21 -4 34 -15 14 -11 19 -16 11 -12 -10 5 -12
3 -7 -5 5 -7 10 -10 13 -7 9 9 44 -14 38 -25 -4 -5 -3 -8 2 -7 8 2 48 -17 67
-34 49 -40 61 -48 77 -53 11 -4 19 -11 19 -16 0 -5 7 -9 15 -9 18 0 19 -11 3
-30 -7 -8 -2 -6 11 5 21 17 24 18 18 3 -3 -10 -1 -20 5 -24 7 -4 8 -3 4 4 -4
7 -4 12 -1 12 11 0 100 -54 103 -62 2 -4 11 -8 19 -8 9 0 13 -6 10 -15 -4 -8
-2 -17 4 -20 5 -4 8 -3 7 2 -3 8 5 13 20 13 5 0 19 -10 32 -23 14 -12 25 -20
25 -18 0 6 78 -30 95 -45 15 -12 19 -14 41 -14 5 0 8 -3 6 -7 -3 -5 9 -9 26
-10 17 -1 33 -6 36 -11 7 -9 155 -72 183 -77 10 -2 24 -7 31 -12 32 -20 167
-59 179 -52 11 7 10 9 -1 9 -9 0 -11 6 -6 17 12 27 13 96 2 110 -6 9 -5 13 4
13 11 0 11 2 -1 10 -13 9 -13 10 0 10 13 0 13 1 0 10 -13 9 -13 10 0 10 9 0
11 3 5 8 -12 8 -15 63 -3 56 4 -3 8 0 8 5 0 6 -6 11 -12 11 -9 0 -8 4 2 10 13
8 12 10 -4 10 -20 0 -20 0 0 16 13 11 15 17 7 20 -7 3 -13 10 -13 15 0 6 6 7
13 3 8 -5 8 -2 -2 9 -9 11 -10 17 -2 17 6 0 11 5 11 11 0 5 -5 7 -11 3 -8 -4
-8 -1 -1 13 12 21 11 41 -1 61 -5 7 -4 12 2 12 6 0 11 5 11 11 0 5 -4 8 -9 5
-5 -4 -8 2 -7 11 2 9 8 19 14 21 7 2 10 8 6 13 -3 5 -2 9 3 10 4 0 18 2 30 3
13 2 23 0 23 -4 0 -4 7 -7 15 -7 8 0 12 4 9 9 -3 4 0 8 5 8 6 0 11 -5 11 -11
0 -8 5 -7 16 2 13 10 17 10 24 -1 7 -11 11 -11 24 -1 9 8 16 9 16 4 0 -5 7
-10 15 -10 8 0 12 4 9 9 -3 4 0 8 5 8 6 0 11 -5 11 -11 0 -8 5 -7 15 1 13 11
18 10 29 -5 10 -14 15 -15 21 -5 6 9 4 11 -6 5 -12 -7 -12 -5 -1 6 11 12 14
12 22 -1 8 -13 10 -12 10 2 0 12 5 16 18 12 13 -5 14 -4 3 4 -7 5 -11 14 -7
20 3 5 -2 13 -11 16 -15 6 -15 8 -3 16 10 7 11 10 3 10 -7 0 -13 7 -13 15 0 9
-10 15 -22 16 -22 1 -22 1 2 9 17 5 19 8 8 9 -10 1 -17 4 -17 9 1 4 0 12 -1
17 -6 25 -4 41 5 47 6 4 2 8 -9 8 -15 0 -16 3 -6 15 11 13 10 14 -4 9 -12 -5
-15 -2 -10 10 4 11 2 15 -8 11 -9 -4 -15 0 -15 9 0 9 6 12 16 8 13 -4 13 -2
-2 15 -14 16 -15 23 -6 29 8 5 10 3 4 -6 -5 -9 -4 -11 4 -6 6 4 9 12 5 17 -3
5 -10 7 -15 3 -13 -8 -7 29 6 38 6 5 6 8 -1 8 -7 0 -12 15 -12 35 0 24 4 33
12 28 7 -4 6 -1 -2 9 -7 8 -11 26 -8 39 2 13 -2 30 -8 38 -9 12 -7 13 8 8 14
-6 16 -4 9 5 -14 19 -14 100 1 91 7 -5 7 -2 -1 8 -8 9 -9 20 -3 29 13 20 12
39 0 20 -8 -12 -9 -10 -7 9 2 14 9 27 15 29 9 3 9 9 1 23 -5 11 -6 19 -2 18
24 -4 25 4 3 17 -14 8 -17 13 -8 10 10 -3 18 -1 18 4 0 18 2 25 13 45 13 24
17 56 6 49 -10 -6 -5 17 9 43 15 26 15 36 2 28 -6 -3 -7 1 -4 9 3 9 10 13 15
10 5 -3 9 9 9 25 0 17 4 31 9 31 5 0 8 15 7 34 -1 19 2 32 5 30 4 -2 10 3 13
12 9 23 7 27 -7 18 -7 -5 -1 2 13 15 20 19 21 22 6 17 -19 -7 -19 -6 -2 13 10
11 15 24 12 29 -8 14 4 43 15 36 5 -3 9 0 9 5 0 6 -5 11 -10 11 -6 0 -1 10 10
22 11 12 18 28 16 35 -3 7 0 13 7 13 8 0 6 4 -3 10 -14 9 -7 15 15 10 6 -1 5
4 -2 11 -13 13 -6 42 9 33 6 -4 4 4 -3 17 -11 21 -11 23 3 11 13 -10 18 -10
24 -1 4 8 3 9 -4 5 -7 -4 -12 -2 -12 3 0 6 4 11 9 11 5 0 12 7 15 16 4 10 2
13 -7 8 -8 -6 -8 -3 1 9 8 9 11 21 7 27 -4 7 0 10 11 8 14 -2 18 2 16 19 -2
12 2 25 9 29 8 5 9 3 4 -6 -5 -9 -4 -11 4 -6 9 6 9 11 0 22 -9 11 -9 14 0 14
7 0 9 5 6 10 -3 6 1 10 9 10 8 0 18 5 22 12 5 7 2 9 -9 5 -11 -4 -14 -2 -10 9
3 8 11 13 19 10 9 -3 11 3 8 19 -3 17 2 27 16 35 11 6 17 16 14 25 -4 8 -1 15
5 15 6 0 11 8 11 18 0 15 -2 15 -11 2 -9 -12 -10 -12 -5 3 3 10 6 25 6 34 0
10 6 13 16 9 9 -3 12 -2 9 5 -9 13 3 61 13 55 5 -3 7 10 6 27 -1 18 3 38 9 46
10 12 9 13 -3 6 -13 -8 -13 -7 -1 8 7 9 9 17 4 17 -5 0 -10 7 -10 15 0 9 4 11
11 6 8 -7 11 7 11 44 0 29 -3 51 -7 49 -4 -2 -10 1 -14 7 -4 8 -3 9 5 5 6 -4
14 0 17 8 3 9 11 13 18 10 6 -3 2 2 -8 10 -18 14 -15 20 6 17 4 0 5 6 2 14 -4
8 -11 12 -18 9 -6 -3 -2 2 8 10 11 9 16 16 10 16 -5 0 -10 14 -10 30 -2 28 0
29 12 13 12 -17 13 -17 9 4 -3 21 16 26 32 8 4 -4 2 -5 -6 0 -10 6 -12 4 -7
-4 6 -9 11 -9 24 1 13 11 15 11 10 -4 -6 -14 9 -29 34 -32 3 -1 10 -5 15 -10
5 -6 2 -6 -7 -1 -8 4 -4 -3 10 -17 14 -13 28 -23 32 -21 4 2 5 -3 2 -11 -3 -9
-1 -16 5 -16 6 0 11 -5 11 -11 0 -5 -6 -7 -12 -4 -7 4 -5 0 5 -8 9 -8 17 -19
17 -24 0 -6 10 -23 22 -39 13 -15 18 -25 12 -21 -6 3 -11 0 -11 -8 0 -8 4 -12
9 -9 4 3 8 -1 8 -8 0 -9 3 -9 10 2 5 8 10 10 10 5 0 -6 -5 -16 -12 -23 -9 -9
-8 -12 4 -12 11 0 15 -6 11 -20 -3 -12 0 -20 8 -20 8 0 6 -5 -6 -13 -14 -11
-15 -16 -5 -22 9 -6 11 -4 5 5 -5 8 -4 11 2 7 10 -6 9 -60 -2 -77 -3 -5 -1
-11 4 -15 10 -5 7 -36 -4 -55 -3 -6 -1 -10 6 -10 8 0 7 -5 -2 -17 -14 -17 -14
-20 2 -40 7 -7 6 -14 -1 -18 -6 -4 -7 -12 -2 -18 10 -15 9 -25 -8 -59 -7 -15
-17 -25 -22 -21 -6 3 -5 -3 1 -14 7 -15 6 -25 -5 -41 -9 -13 -11 -23 -4 -27 7
-4 5 -14 -5 -27 -11 -16 -12 -25 -3 -35 8 -10 6 -13 -8 -13 -17 0 -17 -1 0
-13 17 -12 17 -14 -9 -31 -21 -14 -24 -20 -15 -32 7 -7 17 -11 23 -7 6 3 7 1
3 -6 -4 -6 -11 -9 -16 -6 -4 3 -11 -2 -14 -11 -5 -12 -2 -15 11 -10 15 5 15 4
-1 -9 -14 -11 -16 -15 -5 -15 8 0 10 -3 4 -8 -18 -13 -16 -34 5 -39 11 -3 20
-10 20 -15 0 -5 -4 -7 -9 -3 -5 3 -13 1 -16 -5 -4 -6 -2 -9 4 -8 5 2 17 -6 26
-17 9 -11 14 -15 11 -8 -4 7 1 10 11 8 10 -2 22 -4 26 -4 5 -1 6 -5 2 -10 -3
-5 0 -13 6 -17 8 -4 9 -3 5 4 -9 16 7 15 22 0 9 -9 14 -6 21 13 5 13 10 18 10
10 1 -11 4 -11 18 0 14 12 16 12 9 -1 -4 -8 2 -4 13 10 13 16 21 20 21 11 0
-15 14 -6 16 10 3 22 5 23 14 9 8 -13 10 -12 10 4 0 11 5 16 14 13 10 -4 13 1
12 17 -2 18 1 22 14 19 9 -2 23 4 31 13 12 15 12 16 0 9 -10 -5 -12 -4 -7 3 4
7 15 12 24 12 13 0 14 2 4 9 -10 6 -9 10 7 14 12 3 21 9 20 14 -3 20 2 27 11
13 8 -11 9 -8 6 12 -3 20 0 28 10 28 8 0 12 5 9 10 -3 6 -1 10 6 10 7 0 9 10
7 25 -3 16 1 30 11 37 14 12 14 11 2 -4 -8 -11 -9 -18 -3 -18 10 0 20 21 23
45 0 6 5 15 11 22 5 7 7 17 4 22 -4 5 -1 13 5 17 8 5 9 3 4 -6 -6 -9 -4 -11 4
-6 7 5 10 14 7 22 -3 8 1 14 8 14 10 0 12 7 8 22 -4 15 -2 19 7 13 10 -6 11
-3 1 15 -7 12 -8 20 -2 17 15 -10 33 38 19 52 -7 7 -7 12 -2 11 20 -4 30 1 17
8 -7 5 -10 16 -6 25 3 9 9 15 13 13 4 -3 6 20 5 50 -1 30 3 57 8 60 6 4 5 10
-3 15 -11 7 -10 9 4 9 10 0 15 5 12 10 -4 6 -1 18 7 27 9 12 9 15 1 9 -8 -4
-13 -1 -13 8 0 9 -5 16 -11 16 -6 0 -5 6 3 14 41 43 47 54 32 60 -9 3 -12 1
-9 -4 3 -6 1 -10 -4 -10 -13 0 -13 3 -5 24 3 9 10 14 14 11 5 -3 6 4 3 15 -3
11 -9 18 -12 15 -4 -2 -8 2 -8 9 0 8 7 12 16 9 13 -4 13 -2 -1 10 -22 17 -11
32 11 15 9 -7 5 0 -9 15 -22 25 -22 27 -5 22 19 -6 19 -6 3 8 -14 11 -15 16
-5 27 9 10 9 11 0 6 -9 -5 -13 1 -13 18 0 13 -6 27 -12 29 -7 3 -2 6 12 7 l25
2 -25 8 c-16 5 -19 8 -8 9 9 1 20 6 24 13 5 7 3 8 -6 3 -8 -5 -11 -3 -8 6 3 8
-2 20 -11 27 -9 8 -10 11 -3 7 8 -4 12 1 12 15 0 12 -4 18 -10 15 -5 -3 -10
-1 -10 4 0 6 5 11 10 11 6 0 10 5 10 11 0 5 -4 7 -10 4 -6 -4 -7 1 -3 11 5 13
3 15 -8 9 -9 -6 -8 0 5 19 10 16 13 26 8 22 -14 -8 -12 34 2 53 9 12 8 13 -3
6 -11 -6 -13 -4 -8 8 4 10 1 17 -6 17 -8 0 -6 4 3 10 12 8 12 10 -5 11 -11 0
-14 3 -7 6 6 2 10 9 6 14 -3 5 -1 9 4 9 5 0 8 13 7 29 -1 23 2 27 18 23 10 -3
23 1 28 9 7 12 9 12 9 0 0 -7 6 -11 15 -7 20 7 46 -4 38 -17 -4 -7 0 -8 12 -3
15 5 16 4 6 -8 -11 -13 -9 -15 8 -11 12 2 19 0 16 -5 -10 -16 6 -60 22 -60 8
0 11 -4 8 -10 -3 -5 -2 -10 3 -10 6 0 9 -13 8 -29 -1 -17 2 -27 8 -24 5 4 7
-1 3 -11 -5 -11 -3 -15 5 -10 8 5 9 2 5 -9 -3 -10 -2 -17 2 -17 5 0 12 6 14
13 4 7 6 6 6 -5 1 -9 -5 -19 -11 -21 -8 -3 -5 -6 5 -6 10 -1 15 -5 12 -11 -3
-5 2 -22 11 -37 14 -24 14 -25 0 -9 -9 11 -16 15 -16 8 0 -6 9 -17 21 -25 12
-9 21 -27 21 -46 1 -19 5 -28 12 -24 6 4 4 -2 -4 -12 -8 -10 -10 -16 -4 -12 7
4 15 0 18 -9 9 -23 8 -26 -6 -18 -8 5 -7 1 2 -10 13 -17 14 -17 21 1 7 15 8
16 8 1 1 -9 -6 -23 -14 -31 -13 -13 -13 -16 1 -21 10 -4 13 -2 8 6 -4 6 -3 8
4 5 11 -8 11 -25 -1 -43 -4 -7 0 -15 8 -18 13 -5 14 -10 5 -27 -7 -11 -9 -23
-6 -27 3 -3 6 0 6 7 0 7 5 9 10 6 7 -4 6 -13 -1 -27 -8 -15 -8 -19 1 -13 7 5
11 1 10 -11 -4 -31 0 -45 9 -40 4 3 6 -6 3 -21 -4 -20 -2 -24 9 -19 8 4 5 0
-5 -8 -11 -9 -15 -16 -9 -16 6 0 11 -11 11 -25 0 -13 -5 -22 -9 -19 -5 3 -1
-10 10 -30 14 -24 17 -37 9 -42 -7 -5 -8 -3 -3 6 6 9 4 11 -4 5 -9 -5 -9 -11
-3 -17 6 -6 8 -17 5 -24 -3 -8 -1 -14 5 -14 5 0 13 -7 16 -16 6 -15 4 -15 -11
-3 -9 8 -14 9 -10 2 4 -6 3 -14 -3 -18 -5 -3 -10 -12 -10 -18 0 -7 4 -6 11 3
9 12 10 11 6 -7 -3 -13 0 -23 6 -23 8 0 7 -4 -1 -12 -14 -14 -16 -32 -3 -24
14 9 7 -19 -9 -40 -9 -11 -10 -15 -2 -10 7 4 12 1 12 -9 0 -9 -4 -14 -8 -11
-4 2 -6 -11 -4 -31 4 -28 2 -34 -9 -27 -11 6 -12 5 -2 -7 10 -12 10 -18 0 -29
-9 -10 -9 -11 1 -6 6 4 12 2 12 -3 0 -6 -6 -11 -12 -11 -10 0 -10 -2 0 -9 11
-7 11 -9 -1 -14 -10 -4 -13 -15 -10 -34 4 -23 2 -25 -7 -13 -9 12 -11 8 -8
-21 3 -29 1 -36 -11 -31 -9 3 -12 1 -7 -6 3 -6 2 -14 -4 -17 -8 -5 -8 -11 0
-20 8 -10 8 -16 -3 -22 -7 -4 -17 -16 -20 -26 -4 -10 -12 -16 -19 -12 -7 4 -4
-1 6 -9 19 -15 19 -16 2 -16 -15 0 -16 -3 -6 -15 11 -13 10 -14 -3 -9 -12 4
-15 1 -12 -15 3 -14 0 -18 -11 -14 -10 4 -14 1 -13 -8 5 -23 -10 -69 -22 -69
-7 0 -6 6 2 17 13 16 12 17 -3 5 -9 -8 -14 -20 -11 -28 3 -8 -1 -14 -8 -14
-12 0 -12 -2 -1 -9 11 -7 11 -9 -2 -14 -9 -4 -16 -11 -16 -17 0 -6 6 -8 13 -4
7 4 9 3 4 -2 -5 -5 -13 -9 -19 -9 -6 0 -17 -10 -25 -23 -10 -14 -11 -22 -4
-22 6 0 11 -5 11 -11 0 -5 -4 -8 -9 -5 -5 3 -11 -4 -14 -15 -4 -13 -10 -18
-17 -14 -9 5 -10 1 -5 -15 6 -17 4 -21 -6 -14 -10 6 -10 3 1 -11 12 -15 12
-17 1 -10 -11 6 -13 4 -7 -11 4 -10 4 -16 1 -12 -4 3 -15 -2 -26 -13 -20 -20
-26 -34 -10 -25 5 4 4 -5 -2 -18 -7 -13 -15 -22 -19 -20 -4 3 -5 -3 -1 -12 4
-12 3 -15 -5 -10 -8 5 -12 0 -12 -13 0 -12 -5 -21 -10 -21 -7 0 -7 -6 0 -20 9
-16 8 -19 -6 -13 -14 5 -16 2 -12 -15 4 -16 2 -19 -10 -15 -11 5 -14 2 -9 -9
3 -10 0 -19 -9 -22 -12 -4 -12 -10 -4 -26 9 -16 8 -18 -5 -14 -10 4 -15 2 -13
-7 2 -8 -3 -13 -10 -11 -8 1 -11 -2 -8 -7 4 -5 2 -13 -4 -16 -8 -5 -8 -11 0
-20 8 -9 5 -14 -10 -18 -11 -3 -19 -11 -18 -19 2 -7 -3 -12 -11 -10 -12 3 -12
0 -1 -12 10 -13 10 -16 0 -16 -8 0 -11 -3 -7 -6 3 -4 -2 -14 -11 -23 -10 -9
-13 -12 -6 -8 7 5 15 2 20 -5 4 -7 4 -10 0 -6 -5 4 -19 -4 -32 -17 -24 -24
-32 -41 -14 -30 6 3 10 2 10 -3 0 -6 -7 -12 -15 -16 -10 -4 -14 -14 -11 -31 3
-17 1 -23 -6 -19 -8 5 -9 1 -4 -11 5 -14 4 -15 -6 -7 -10 8 -13 -1 -13 -43 0
-42 3 -51 15 -47 13 5 13 4 0 -13 -9 -11 -10 -16 -2 -11 8 5 12 0 12 -17 0
-14 7 -28 16 -31 13 -5 14 -9 4 -21 -10 -12 -10 -15 0 -15 8 0 11 -3 7 -6 -3
-4 1 -13 9 -22 14 -13 17 -13 26 -1 7 11 11 11 15 1 2 -6 9 -9 14 -6 18 10 59
12 59 1 0 -5 7 -4 15 3 8 7 15 8 15 3 0 -5 7 -10 15 -10 8 0 12 4 9 9 -3 4 0
8 5 8 6 0 11 -5 11 -11 0 -8 5 -7 15 1 13 11 18 10 29 -5 10 -14 15 -15 21 -5
6 9 4 11 -6 5 -12 -7 -12 -5 -1 6 11 12 14 12 21 0 6 -10 10 -10 16 -2 5 9 10
9 20 1 10 -8 14 -7 18 2 4 10 6 10 6 -1 1 -11 4 -11 16 -1 12 10 15 10 15 0 0
-10 3 -10 15 0 8 7 15 8 15 3 0 -5 7 -10 15 -10 8 0 12 4 9 9 -3 4 0 8 5 8 6
0 11 -4 11 -8 0 -5 7 -9 15 -9 8 0 12 4 9 9 -3 4 -1 8 5 8 5 0 12 -6 14 -12 4
-10 6 -10 6 0 1 11 4 10 16 -1 8 -9 24 -13 35 -10 15 4 20 0 20 -16 0 -11 -5
-21 -11 -21 -5 0 -7 -5 -3 -11 5 -8 9 -8 14 1 5 8 10 9 14 2 3 -6 -4 -18 -16
-26 -12 -9 -17 -16 -10 -16 6 0 12 -7 12 -16 0 -8 5 -12 11 -8 6 3 4 -5 -5
-19 -14 -21 -15 -27 -3 -38 16 -16 18 -49 4 -49 -5 0 -7 6 -4 13 3 8 -1 14 -8
14 -10 0 -11 -6 -3 -23 6 -13 16 -21 22 -17 6 3 6 0 -1 -7 -10 -11 -9 -16 5
-27 16 -12 16 -13 0 -7 -13 4 -18 1 -18 -11 0 -10 4 -13 13 -9 8 5 8 3 -2 -9
-7 -9 -17 -14 -22 -11 -5 3 -4 -6 2 -20 7 -14 17 -22 23 -19 6 4 6 0 -1 -8
-10 -12 -10 -18 0 -29 9 -10 9 -11 0 -6 -8 4 -13 1 -13 -8 0 -9 4 -16 9 -16 6
0 9 -9 8 -20 -1 -11 -5 -20 -10 -20 -5 0 -7 6 -4 13 3 8 -1 14 -8 14 -10 0
-11 -6 -3 -23 6 -13 16 -21 22 -17 6 3 6 0 -1 -7 -10 -11 -9 -16 5 -27 16 -12
16 -13 -2 -6 -15 5 -18 3 -13 -10 3 -9 2 -17 -3 -17 -6 0 -10 -4 -10 -10 0 -5
7 -7 15 -4 11 5 13 2 9 -10 -3 -9 -10 -13 -15 -10 -5 3 -6 -1 -3 -9 5 -15 41
-13 79 3 28 12 78 24 89 21 6 -1 19 2 30 7 12 6 37 15 56 22 19 7 44 16 55 20
11 5 38 14 60 20 39 12 66 23 141 56 20 9 42 17 48 18 6 1 34 13 61 26 28 14
55 25 60 25 6 0 12 2 15 5 11 11 156 80 168 80 8 0 10 5 6 12 -5 7 -2 9 9 5 9
-3 17 -3 19 1 3 9 63 52 71 52 7 0 3 -22 -7 -40 -7 -12 -7 -13 5 -2 14 13 15
17 18 47 0 8 7 15 15 15 7 0 19 7 26 15 7 8 21 15 32 15 10 0 16 5 13 10 -8
13 1 13 28 -2 20 -10 21 -10 9 5 -11 13 -10 17 9 28 13 6 32 20 43 31 11 10
26 16 34 13 7 -2 11 -1 8 4 -3 5 22 28 55 52 33 24 67 50 74 57 8 6 19 12 25
12 6 0 8 5 5 10 -3 6 -1 10 5 10 6 0 21 11 34 25 13 14 29 25 35 25 7 0 9 5 6
10 -6 9 8 14 28 11 5 -1 6 3 2 8 -6 10 33 37 47 33 5 -1 7 4 5 11 -1 6 4 11
11 9 8 -1 11 1 8 6 -5 9 31 46 48 49 5 1 14 12 21 25 6 13 17 22 24 20 7 -1
10 1 7 6 -6 11 57 74 67 67 4 -3 5 -2 2 2 -8 10 16 33 28 26 6 -3 7 -1 3 5 -3
6 2 15 11 21 10 6 14 11 10 11 -8 0 -6 3 50 65 19 22 32 34 29 28 -5 -8 -2
-11 7 -7 8 3 14 13 13 22 0 9 4 16 11 15 7 -2 10 4 7 12 -4 8 1 17 10 21 9 3
16 13 16 21 0 9 6 13 14 10 10 -4 13 -1 10 8 -5 12 17 43 64 91 7 7 13 16 12
19 -1 16 1 16 18 4 16 -13 16 -13 2 5 -11 15 -12 20 -2 23 6 3 12 11 12 18 0
8 5 17 12 21 7 5 8 3 3 -6 -5 -8 -4 -11 3 -6 6 4 9 13 6 20 -3 8 5 23 17 35
13 12 19 21 14 21 -5 0 2 12 16 27 14 16 33 44 42 63 21 43 39 73 50 81 5 3 9
10 10 15 1 5 7 8 12 6 6 -2 5 2 -2 9 -10 10 -9 15 5 25 9 7 18 17 18 23 1 6 2
18 3 27 0 8 5 12 11 9 6 -4 7 1 3 11 -5 13 -2 16 9 12 11 -5 15 0 14 15 0 12
4 21 10 20 7 -1 10 10 8 27 -3 28 4 36 30 31 5 -1 4 4 -1 11 -8 10 -6 24 8 56
11 23 23 40 28 38 4 -3 5 8 3 25 -3 21 0 29 11 29 9 0 19 5 23 12 4 7 3 8 -4
4 -16 -10 -15 4 4 39 9 17 17 39 18 50 1 11 7 19 13 18 8 -2 10 9 6 34 -4 22
-2 34 3 30 6 -3 16 3 23 15 8 14 9 18 1 13 -8 -5 -11 -1 -8 11 2 11 8 18 14
17 5 -1 10 18 11 42 1 24 6 52 12 64 6 11 11 31 11 45 0 14 5 28 10 31 6 3 10
20 10 36 0 17 5 39 10 49 6 11 13 47 17 81 6 62 27 104 46 92 6 -3 7 -1 3 6
-4 6 -11 9 -16 6 -4 -2 -8 13 -8 35 0 22 3 40 8 40 4 0 8 6 7 13 -2 59 5 127
12 123 6 -4 8 137 5 351 -4 398 -7 472 -23 501 -14 27 -14 35 2 26 8 -6 8 -3
-2 9 -7 9 -11 23 -8 31 3 7 -1 24 -10 35 -8 12 -13 24 -11 27 3 2 -1 34 -8 71
-7 37 -10 71 -8 75 3 5 0 8 -5 8 -6 0 -11 10 -11 22 0 22 -15 77 -32 113 -5
12 -10 39 -11 62 -1 23 -5 39 -9 36 -8 -4 -10 0 -12 39 0 12 -7 23 -13 26 -7
2 -13 11 -13 21 0 19 -33 118 -43 128 -12 12 -8 45 5 37 7 -4 8 -3 4 4 -4 6
-13 9 -21 5 -11 -4 -15 2 -15 21 0 14 -4 26 -10 26 -5 0 -10 7 -10 16 0 9 -6
28 -14 42 -22 44 -48 107 -45 108 2 1 -5 11 -15 23 -11 12 -16 21 -12 21 4 0
-2 13 -13 29 -22 31 -26 47 -13 54 4 2 1 2 -5 1 -13 -3 -49 54 -45 69 1 4 -5
15 -13 23 -8 9 -12 20 -9 26 4 7 2 8 -4 4 -13 -8 -45 47 -34 59 4 5 1 5 -5 1
-13 -7 -17 5 -13 34 1 8 -1 12 -5 8 -8 -8 -35 15 -35 30 0 5 -7 15 -15 22 -8
7 -12 16 -9 21 3 5 0 9 -6 9 -6 0 -9 4 -5 9 3 5 -3 12 -14 16 -17 5 -35 38
-32 58 1 5 -3 6 -8 3 -10 -6 -27 11 -33 32 -2 8 -20 32 -40 55 -26 29 -34 43
-25 49 9 6 9 8 -2 8 -19 0 -112 102 -107 117 3 8 -1 10 -11 6 -13 -5 -15 -2
-10 11 4 9 3 15 -2 12 -5 -3 -19 3 -31 14 -13 11 -20 20 -16 20 4 0 -4 11 -16
24 -13 13 -26 21 -30 19 -5 -2 -8 2 -8 10 0 8 -7 18 -16 21 -8 3 -13 10 -10
15 3 5 -6 12 -19 15 -14 4 -24 10 -21 15 3 4 -6 14 -19 21 -14 7 -24 21 -23
29 2 9 -3 15 -10 13 -7 -1 -20 4 -28 12 -17 17 -19 30 -2 20 7 -4 8 -3 4 4 -4
6 -13 9 -21 5 -8 -3 -15 0 -15 6 0 6 -5 11 -11 11 -9 0 -36 22 -100 83 -11 9
-23 17 -29 17 -5 0 -10 7 -10 15 0 8 -3 14 -7 13 -12 -3 -56 23 -74 44 -9 10
-21 18 -28 18 -6 0 -11 4 -11 8 0 5 -16 17 -35 28 -19 10 -35 22 -35 26 0 5
-7 8 -16 8 -10 0 -14 6 -11 15 4 8 1 17 -5 21 -7 5 -8 2 -3 -6 9 -14 4 -13
-48 12 -15 7 -25 18 -23 24 3 7 -3 10 -15 7 -10 -3 -19 0 -19 6 0 6 -7 11 -16
11 -8 0 -12 4 -9 10 3 5 0 7 -8 4 -8 -3 -20 2 -27 10 -7 9 -16 13 -21 10 -5
-3 -9 0 -9 5 0 6 -7 11 -15 11 -8 0 -15 4 -15 9 0 5 -12 12 -27 16 -15 3 -30
10 -33 14 -6 8 -113 61 -124 61 -3 0 -39 15 -79 34 -74 35 -104 47 -123 51 -5
2 -36 14 -67 29 -32 14 -66 26 -76 26 -10 0 -21 3 -25 8 -4 4 -11 7 -14 7 -8
1 -119 34 -142 43 -8 3 -26 6 -40 8 -14 1 -25 3 -25 4 0 4 -42 6 -62 3z m-3
-313 c0 -5 -4 -10 -10 -10 -5 0 -10 5 -10 10 0 6 5 10 10 10 6 0 10 -4 10 -10z
m-215 -879 c3 -5 2 -12 -3 -15 -5 -3 -9 1 -9 9 0 17 3 19 12 6z m-1495 -725
c0 -11 -19 -15 -25 -6 -3 5 1 10 9 10 9 0 16 -2 16 -4z m-75 -436 c-3 -5 -12
-10 -18 -10 -7 0 -6 4 3 10 19 12 23 12 15 0z m849 -1566 c3 -8 2 -12 -4 -9
-6 3 -10 10 -10 16 0 14 7 11 14 -7z m489 -389 c-3 -9 -8 -14 -10 -11 -3 3 -2
9 2 15 9 16 15 13 8 -4z m-493 -325 c0 -5 -7 -10 -16 -10 -8 0 -12 5 -9 10 3
6 10 10 16 10 5 0 9 -4 9 -10z m940 -1440 c0 -5 -2 -10 -4 -10 -3 0 -8 5 -11
10 -3 6 -1 10 4 10 6 0 11 -4 11 -10z m0 -60 c0 -5 -5 -10 -11 -10 -5 0 -7 5
-4 10 3 6 8 10 11 10 2 0 4 -4 4 -10z m0 -180 c0 -5 -4 -10 -10 -10 -5 0 -10
5 -10 10 0 6 5 10 10 10 6 0 10 -4 10 -10z"/>
<path d="M1409 6213 c-13 -16 -12 -17 4 -4 9 7 17 15 17 17 0 8 -8 3 -21 -13z"/>
<path d="M540 5356 c0 -2 8 -10 18 -17 15 -13 16 -12 3 4 -13 16 -21 21 -21
13z"/>
<path d="M453 5215 c0 -8 4 -12 9 -9 5 3 6 10 3 15 -9 13 -12 11 -12 -6z"/>
<path d="M6430 5066 c0 -2 8 -10 18 -17 15 -13 16 -12 3 4 -13 16 -21 21 -21
13z"/>
<path d="M3280 4936 c0 -2 8 -10 18 -17 15 -13 16 -12 3 4 -13 16 -21 21 -21
13z"/>
<path d="M6495 4879 c-4 -6 -5 -12 -2 -15 2 -3 7 2 10 11 7 17 1 20 -8 4z"/>
<path d="M267 4849 c7 -7 15 -10 18 -7 3 3 -2 9 -12 12 -14 6 -15 5 -6 -5z"/>
<path d="M2805 4281 c-3 -5 -2 -12 3 -15 5 -3 9 1 9 9 0 17 -3 19 -12 6z"/>
<path d="M2475 4010 c3 -5 8 -10 11 -10 2 0 4 5 4 10 0 6 -5 10 -11 10 -5 0
-7 -4 -4 -10z"/>
<path d="M6775 2790 c-3 -5 -1 -10 4 -10 6 0 11 5 11 10 0 6 -2 10 -4 10 -3 0
-8 -4 -11 -10z"/>
<path d="M6753 2735 c0 -8 4 -15 9 -15 4 0 8 4 8 9 0 6 -4 12 -8 15 -5 3 -9
-1 -9 -9z"/>
<path d="M47 2709 c7 -7 15 -10 18 -7 3 3 -2 9 -12 12 -14 6 -15 5 -6 -5z"/>
<path d="M3815 2671 c-3 -5 -2 -12 3 -15 5 -3 9 1 9 9 0 17 -3 19 -12 6z"/>
<path d="M56 2632 c-3 -5 1 -9 9 -9 8 0 12 4 9 9 -3 4 -7 8 -9 8 -2 0 -6 -4
-9 -8z"/>
<path d="M6706 2528 c3 -5 10 -6 15 -3 13 9 11 12 -6 12 -8 0 -12 -4 -9 -9z"/>
<path d="M96 2468 c3 -5 10 -6 15 -3 13 9 11 12 -6 12 -8 0 -12 -4 -9 -9z"/>
<path d="M115 2411 c-3 -5 -2 -12 3 -15 5 -3 9 1 9 9 0 17 -3 19 -12 6z"/>
<path d="M3309 2335 c-1 -3 -2 -9 -3 -14 0 -5 -4 -13 -8 -17 -5 -4 -8 -12 -8
-18 1 -13 23 23 26 42 2 11 -5 18 -7 7z"/>
<path d="M6526 2028 c3 -5 10 -6 15 -3 13 9 11 12 -6 12 -8 0 -12 -4 -9 -9z"/>
<path d="M270 2009 c0 -5 5 -7 10 -4 6 3 10 8 10 11 0 2 -4 4 -10 4 -5 0 -10
-5 -10 -11z"/>
<path d="M279 1903 c-13 -17 -13 -17 6 -3 11 8 22 16 24 17 2 2 0 3 -6 3 -6 0
-17 -8 -24 -17z"/>
<path d="M6410 1750 c0 -5 5 -10 11 -10 5 0 7 5 4 10 -3 6 -8 10 -11 10 -2 0
-4 -4 -4 -10z"/>
<path d="M455 1630 c-3 -5 -1 -10 4 -10 6 0 11 5 11 10 0 6 -2 10 -4 10 -3 0
-8 -4 -11 -10z"/>
<path d="M6333 1585 c0 -8 4 -12 9 -9 5 3 6 10 3 15 -9 13 -12 11 -12 -6z"/>
<path d="M490 1549 c0 -5 5 -7 10 -4 6 3 10 8 10 11 0 2 -4 4 -10 4 -5 0 -10
-5 -10 -11z"/>
<path d="M6253 1461 c0 -11 5 -18 9 -15 4 3 5 11 1 19 -7 21 -12 19 -10 -4z"/>
<path d="M585 1410 c-3 -6 1 -7 9 -4 18 7 21 14 7 14 -6 0 -13 -4 -16 -10z"/>
<path d="M6166 1388 c3 -5 10 -6 15 -3 13 9 11 12 -6 12 -8 0 -12 -4 -9 -9z"/>
<path d="M634 1376 c1 -8 5 -18 8 -22 4 -3 5 1 4 10 -1 8 -5 18 -8 22 -4 3 -5
-1 -4 -10z"/>
<path d="M6150 1370 c0 -5 5 -10 11 -10 5 0 7 5 4 10 -3 6 -8 10 -11 10 -2 0
-4 -4 -4 -10z"/>
<path d="M670 1310 c0 -5 5 -10 11 -10 5 0 7 5 4 10 -3 6 -8 10 -11 10 -2 0
-4 -4 -4 -10z"/>
<path d="M696 1277 c3 -10 9 -15 12 -12 3 3 0 11 -7 18 -10 9 -11 8 -5 -6z"/>
<path d="M730 1271 c0 -6 4 -13 10 -16 6 -3 7 1 4 9 -7 18 -14 21 -14 7z"/>
<path d="M730 1229 c0 -5 5 -7 10 -4 6 3 10 8 10 11 0 2 -4 4 -10 4 -5 0 -10
-5 -10 -11z"/>
<path d="M785 1130 c-3 -6 1 -7 9 -4 18 7 21 14 7 14 -6 0 -13 -4 -16 -10z"/>
<path d="M830 1087 c0 -2 6 -10 14 -16 11 -9 16 -9 22 1 4 7 4 10 -1 6 -4 -4
-14 -3 -22 3 -7 6 -13 9 -13 6z"/>
<path d="M953 1025 c0 -8 4 -12 9 -9 5 3 6 10 3 15 -9 13 -12 11 -12 -6z"/>
<path d="M5855 1030 c-3 -5 -1 -10 4 -10 6 0 11 5 11 10 0 6 -2 10 -4 10 -3 0
-8 -4 -11 -10z"/>
<path d="M5890 1029 c0 -5 5 -7 10 -4 6 3 10 8 10 11 0 2 -4 4 -10 4 -5 0 -10
-5 -10 -11z"/>
<path d="M975 1001 c-3 -5 -2 -12 3 -15 5 -3 9 1 9 9 0 17 -3 19 -12 6z"/>
<path d="M5855 990 c3 -5 8 -10 11 -10 2 0 4 5 4 10 0 6 -5 10 -11 10 -5 0 -7
-4 -4 -10z"/>
<path d="M5770 909 c0 -5 5 -7 10 -4 6 3 10 8 10 11 0 2 -4 4 -10 4 -5 0 -10
-5 -10 -11z"/>
<path d="M1080 890 c-9 -6 -10 -10 -3 -10 6 0 15 5 18 10 8 12 4 12 -15 0z"/>
<path d="M5686 828 c3 -5 10 -6 15 -3 13 9 11 12 -6 12 -8 0 -12 -4 -9 -9z"/>
<path d="M5650 826 c0 -2 8 -10 18 -17 15 -13 16 -12 3 4 -13 16 -21 21 -21
13z"/>
<path d="M1135 810 c-3 -5 -1 -10 4 -10 6 0 11 5 11 10 0 6 -2 10 -4 10 -3 0
-8 -4 -11 -10z"/>
<path d="M1215 750 c3 -5 8 -10 11 -10 2 0 4 5 4 10 0 6 -5 10 -11 10 -5 0 -7
-4 -4 -10z"/>
<path d="M5613 753 c4 -3 1 -13 -6 -22 -11 -14 -10 -14 5 -2 16 12 16 31 1 31
-4 0 -3 -3 0 -7z"/>
<path d="M5505 710 c-3 -6 1 -7 9 -4 18 7 21 14 7 14 -6 0 -13 -4 -16 -10z"/>
<path d="M1295 670 c-3 -5 -1 -10 4 -10 6 0 11 5 11 10 0 6 -2 10 -4 10 -3 0
-8 -4 -11 -10z"/>
<path d="M5490 669 c0 -5 5 -7 10 -4 6 3 10 8 10 11 0 2 -4 4 -10 4 -5 0 -10
-5 -10 -11z"/>
<path d="M5336 583 c-6 -14 -5 -15 5 -6 7 7 10 15 7 18 -3 3 -9 -2 -12 -12z"/>
<path d="M5290 510 c0 -5 5 -10 11 -10 5 0 7 5 4 10 -3 6 -8 10 -11 10 -2 0
-4 -4 -4 -10z"/>
<path d="M1560 470 c-8 -5 -10 -10 -5 -10 6 0 17 5 25 10 8 5 11 10 5 10 -5 0
-17 -5 -25 -10z"/>
<path d="M5015 390 c-3 -5 -1 -10 4 -10 6 0 11 5 11 10 0 6 -2 10 -4 10 -3 0
-8 -4 -11 -10z"/>
<path d="M5093 379 c-2 -23 3 -25 10 -4 4 8 3 16 -1 19 -4 3 -9 -4 -9 -15z"/>
<path d="M1675 379 c-4 -6 -5 -12 -2 -15 2 -3 7 2 10 11 7 17 1 20 -8 4z"/>
<path d="M4930 356 c0 -2 7 -7 16 -10 8 -3 12 -2 9 4 -6 10 -25 14 -25 6z"/>
<path d="M5010 356 c0 -2 7 -7 16 -10 8 -3 12 -2 9 4 -6 10 -25 14 -25 6z"/>
</g>
</svg>
